<svg xmlns="http://www.w3.org/2000/svg" version="1.1" xmlns:xlink="http://www.w3.org/1999/xlink" xmlns:svgjs="http://svgjs.dev/svgjs" width="1440" height="560" preserveAspectRatio="none" viewBox="0 0 1440 560"><g mask="url(&quot;#SvgjsMask1755&quot;)" fill="none"><rect width="1440" height="560" x="0" y="0" fill="url(&quot;#SvgjsLinearGradient1756&quot;)"></rect><path d="M1713.89 81.9C1598.05 86.64 1506.46 278.33 1293.6 277.9 1080.74 277.47 1005.75-34.44 873.31-53.57" stroke="rgba(156, 25, 220, 0.26)" stroke-width="2"></path><path d="M1607.53 65.54C1449.72 70.55 1245.9 312.17 1026.02 311.94 806.14 311.71 844.56-9.77 735.27-47.21" stroke="rgba(156, 25, 220, 0.26)" stroke-width="2"></path><path d="M1515.22 429.55C1392.02 420.96 1337.97 204.03 1087.05 183.15 836.12 162.27 786.68-88.13 658.87-100.62" stroke="rgba(156, 25, 220, 0.26)" stroke-width="2"></path><path d="M1503.93 505.6C1320.78 504.47 1172.57 346.86 790.86 337.6 409.14 328.34 279.29-29.5 77.78-41" stroke="rgba(156, 25, 220, 0.26)" stroke-width="2"></path><path d="M1480.44 43.7C1304.7 49.28 1158.91 318.37 832.85 318.1 506.78 317.83 378.38-90.97 185.25-109.7" stroke="rgba(156, 25, 220, 0.26)" stroke-width="2"></path></g><defs><mask id="SvgjsMask1755"><rect width="1440" height="560" fill="#ffffff"></rect></mask><linearGradient x1="84.72%" y1="139.29%" x2="15.28%" y2="-39.29%" gradientUnits="userSpaceOnUse" id="SvgjsLinearGradient1756"><stop stop-color="#0e2a47" offset="0"></stop><stop stop-color="rgba(48, 5, 71, 1)" offset="1"></stop></linearGradient></defs></svg>